<svg height="800" width="800" xmlns="http://www.w3.org/2000/svg" viewBox="0 0 512 512" xml:space="preserve">
  <path style="fill:#47821c" d="M1.38 311.293a14.45 14.45 0 0 1 15.825-8.026c33.468 6.489 69.049 23.096 105.754 49.361 28.787 20.598 58.428 47.215 88.1 79.111l.7.757H111.453a1197.866 1197.866 0 0 0-27.93-29.951c-43.882-45.46-77.926-73.659-78.264-73.937a14.456 14.456 0 0 1-3.879-17.315z"/>
  <path style="fill:#4e901e" d="M24.532 203.946a14.452 14.452 0 0 1 17.149-4.558c31.386 13.311 62.733 36.958 93.169 70.285 23.871 26.137 47.324 58.339 69.71 95.711 14.6 24.374 26.769 47.612 36.27 67.112h-88.554c-22.131-47.983-46.638-90.572-66.387-122.204-33.462-53.596-60.895-88.261-61.167-88.603a14.458 14.458 0 0 1-.19-17.743z"/>
  <path style="fill:#5eac24" d="M80.575 122.206a14.451 14.451 0 0 1 17.691-1.369c28.447 18.788 54.979 47.733 78.861 86.033 18.729 30.037 35.947 65.961 51.175 106.776 19.435 52.091 30.516 98.224 34.993 118.849h-85.089c-13.243-75.266-37.535-146.218-56.599-194.57-23.175-58.781-43.859-97.851-44.063-98.236a14.452 14.452 0 0 1 3.031-17.483z"/>
  <path style="fill:#6dc82a" d="M204.684 432.409c.002-.512.03-1.017.084-1.514 4.949-85.351-5.917-171.119-15.921-228.106-10.914-62.176-23.201-104.534-23.323-104.953-1.851-6.329.708-13.145 6.216-16.552 5.509-3.408 12.559-2.538 17.125 2.114 23.545 23.984 43.333 57.555 58.814 99.781 12.142 33.117 21.723 71.713 28.478 114.717 11.312 72.013 10.864 131.159 10.822 134.889l-82.295-.376z"/>
  <path style="fill:#4e901e" d="M510.62 311.293a14.45 14.45 0 0 0-15.825-8.026c-33.468 6.489-69.049 23.096-105.754 49.361-28.787 20.598-58.428 47.215-88.1 79.111l-.7.757h100.306a1195.99 1195.99 0 0 1 27.93-29.951c43.882-45.46 77.926-73.659 78.264-73.937a14.456 14.456 0 0 0 3.879-17.315z"/>
  <path style="fill:#5eac24" d="M487.468 203.946a14.452 14.452 0 0 0-17.149-4.558c-31.386 13.311-62.733 36.958-93.169 70.285-23.871 26.137-47.324 58.339-69.71 95.711-14.6 24.374-26.769 47.612-36.271 67.112h88.554c22.131-47.983 46.638-90.572 66.387-122.204 33.462-53.596 60.895-88.261 61.167-88.603a14.457 14.457 0 0 0 .191-17.743z"/>
  <path style="fill:#6dc82a" d="M431.425 122.206a14.451 14.451 0 0 0-17.691-1.369c-28.447 18.788-54.979 47.733-78.861 86.033-18.729 30.037-35.947 65.961-51.175 106.776-19.435 52.091-30.516 98.224-34.993 118.849h85.089c13.243-75.266 37.535-146.218 56.599-194.57 23.175-58.781 43.859-97.851 44.063-98.236a14.45 14.45 0 0 0-3.031-17.483z"/>
  <path style="fill:#91dc5a" d="M308.875 432.495c0-.512-.027-1.017-.078-1.514-4.688-85.373 6.894-171.09 17.454-228.031 11.521-62.125 24.361-104.426 24.488-104.844a14.454 14.454 0 0 0-23.942-14.545c-24.335 23.876-44.85 57.355-60.975 99.512-12.647 33.061-22.686 71.613-29.837 114.586-11.977 71.961-11.794 131.108-11.77 134.838h84.661v-.002z"/>
  <path style="fill:#47821c" d="M120.163 432.495H48.762c-4.328 0-7.837-3.508-7.837-7.837s3.509-7.837 7.837-7.837h71.401c4.328 0 7.837 3.508 7.837 7.837s-3.509 7.837-7.837 7.837zM21.943 432.495H8.359c-4.328 0-7.837-3.508-7.837-7.837s3.509-7.837 7.837-7.837h13.584c4.328 0 7.837 3.508 7.837 7.837s-3.509 7.837-7.837 7.837z"/>
  <path style="fill:#4e901e" d="M444.43 432.495h-57.817c-4.329 0-7.837-3.508-7.837-7.837s3.508-7.837 7.837-7.837h57.817c4.329 0 7.837 3.508 7.837 7.837s-3.508 7.837-7.837 7.837zM502.954 432.495h-30.66c-4.329 0-7.837-3.508-7.837-7.837s3.508-7.837 7.837-7.837h30.66c4.329 0 7.837 3.508 7.837 7.837s-3.509 7.837-7.837 7.837z"/>
  <path style="fill:#5eac24" d="M271.167 401.386a7.836 7.836 0 0 1-7.831-7.656c-.612-26.559.728-54.983 3.986-84.481.475-4.3 4.349-7.395 8.65-6.93a7.838 7.838 0 0 1 6.93 8.65c-3.183 28.81-4.494 56.533-3.896 82.399a7.836 7.836 0 0 1-7.839 8.018zM279.766 283.426a7.836 7.836 0 0 1-7.749-9.067c3.731-23.493 7.206-38.067 7.352-38.676a7.84 7.84 0 0 1 9.447-5.792 7.838 7.838 0 0 1 5.794 9.447c-.033.144-3.487 14.645-7.114 37.479a7.838 7.838 0 0 1-7.73 6.609z"/>
</svg>