<svg xmlns="http://www.w3.org/2000/svg" width="100mm" height="100mm" viewBox="0 0 100 100">
  <g transform="translate(0 -197)">
    <path style="fill:#e3e2db;fill-opacity:1;fill-rule:nonzero;stroke:none;stroke-width:.4664686;stroke-miterlimit:4;stroke-dasharray:none;stroke-opacity:1" d="m164.965 259.89-37.46 12.655 8.849 26.193 33.78-11.41h47.323l33.781 11.41 8.848-26.193-36.506-12.332v-.322z" transform="matrix(.26458 0 0 .26458 0 197)"/>
    <path style="fill:#aca793;fill-opacity:1;fill-rule:nonzero;stroke:none;stroke-width:.37795275;stroke-miterlimit:4;stroke-dasharray:none;stroke-opacity:1" d="m252.127 214.992-49.219 16.123.856 1.588h-19.922l.853-1.588-49.218-16.12-10.922 20.296 47.82 15.662v.375h1.143l.255.084.045-.084h39.967l.045.082.25-.082h3.295v-1.08l45.672-14.959z" transform="matrix(.26458 0 0 .26458 0 197)"/>
    <rect style="display:inline;fill:#c8c4b7;fill-opacity:1;fill-rule:nonzero;stroke:none;stroke-width:.1;stroke-miterlimit:4;stroke-dasharray:none;stroke-opacity:1" width="68.287" height="57.062" x="17.105" y="202.387" ry="4.811"/>
    <rect style="display:inline;fill:#e3e2db;fill-opacity:1;fill-rule:nonzero;stroke:none;stroke-width:.1;stroke-miterlimit:4;stroke-dasharray:none;stroke-opacity:1" width="66.207" height="54.83" x="18.171" y="203.457" ry="3.942"/>
    <rect style="display:inline;fill:#c8c4b7;fill-opacity:1;fill-rule:nonzero;stroke:none;stroke-width:.1;stroke-miterlimit:4;stroke-dasharray:none;stroke-opacity:1" width="59.887" height="46.14" x="21.332" y="206.696" ry="2.678"/>
    <rect style="display:inline;fill:#000;fill-opacity:1;fill-rule:nonzero;stroke:none;stroke-width:.1;stroke-miterlimit:4;stroke-dasharray:none;stroke-opacity:1" width="56.499" height="42.966" x="22.991" y="208.276" ry="2.331" rx="0"/>
    <rect style="display:inline;fill:#333;fill-opacity:1;fill-rule:nonzero;stroke:none;stroke-width:.1;stroke-miterlimit:4;stroke-dasharray:none;stroke-opacity:1" width="54.514" height="41.004" x="24.018" y="209.303" ry="1.73"/>
    <circle style="display:inline;fill:#c8c4b7;fill-opacity:1;fill-rule:nonzero;stroke:none;stroke-width:.1;stroke-miterlimit:4;stroke-dasharray:none;stroke-opacity:1" cx="77.387" cy="255.877" r=".988"/>
    <rect style="display:inline;fill:#c8c4b7;fill-opacity:1;fill-rule:nonzero;stroke:none;stroke-width:.1;stroke-miterlimit:4;stroke-dasharray:none;stroke-opacity:1" width="35.079" height="1.738" x="33.736" y="269.111" ry="0"/>
    <path style="display:inline;fill:#c8c4b7;fill-opacity:1;fill-rule:nonzero;stroke:none;stroke-width:.09800094;stroke-miterlimit:4;stroke-dasharray:none;stroke-opacity:1" d="M43.295 262.632h15.959v3.263H43.295z"/>
    <circle style="display:inline;fill:#bcd35f;fill-opacity:1;fill-rule:nonzero;stroke:none;stroke-width:.1;stroke-miterlimit:4;stroke-dasharray:none;stroke-opacity:1" cx="75.357" cy="255.874" r=".182"/>
    <rect style="display:inline;fill:#aca793;fill-opacity:1;fill-rule:nonzero;stroke:none;stroke-width:.1;stroke-miterlimit:4;stroke-dasharray:none;stroke-opacity:1" width="81.161" height="20.307" x="10.782" y="270.74" ry="1.928"/>
    <rect style="display:inline;fill:#c8c4b7;fill-opacity:1;fill-rule:nonzero;stroke:none;stroke-width:.1;stroke-miterlimit:4;stroke-dasharray:none;stroke-opacity:1" width="78.846" height="17.462" x="11.84" y="271.865" ry=".804"/>
    <rect style="display:inline;fill:#aca793;fill-opacity:1;fill-rule:nonzero;stroke:none;stroke-width:.1;stroke-miterlimit:4;stroke-dasharray:none;stroke-opacity:1" width="30.229" height="12.898" x="59.366" y="273.022" ry="0"/>
    <path style="display:inline;fill:#e2e3db;fill-opacity:1;fill-rule:nonzero;stroke:none;stroke-width:.1;stroke-miterlimit:4;stroke-dasharray:none;stroke-opacity:1" d="M60.259 273.981h28.377v10.98H60.259z"/>
    <path style="display:inline;fill:#c8c4b7;fill-opacity:1;fill-rule:nonzero;stroke:none;stroke-width:.1;stroke-miterlimit:4;stroke-dasharray:none;stroke-opacity:1" d="M61.516 281.886h3.803v1.587h-3.803z"/>
    <path style="display:inline;fill:#24221c;fill-opacity:1;fill-rule:nonzero;stroke:none;stroke-width:.1;stroke-miterlimit:4;stroke-dasharray:none;stroke-opacity:1" d="M61.449 276.627h25.896v2.051H61.449z"/>
    <path style="fill:#24221c;fill-opacity:1;fill-rule:nonzero;stroke:none;stroke-width:.1;stroke-miterlimit:4;stroke-dasharray:none;stroke-opacity:1" d="M69.982 275.734h8.93v3.836h-8.93z"/>
    <path style="display:inline;fill:#e3e2db;fill-opacity:1;fill-rule:nonzero;stroke:none;stroke-width:.1;stroke-miterlimit:4;stroke-dasharray:none;stroke-opacity:1" d="M13.957 273.998h8.814v2.497h-8.814z"/>
    <path style="display:inline;fill:#24221c;fill-opacity:1;fill-rule:nonzero;stroke:none;stroke-width:.1;stroke-miterlimit:4;stroke-dasharray:none;stroke-opacity:1" d="M13.924 279.273h1.687v10.12h-1.687zM17.099 279.273h1.687v10.12h-1.687zM20.274 279.273h1.687v10.12h-1.687zM23.449 279.273h1.687v10.12h-1.687zM26.491 279.273h1.687v10.12h-1.687zM29.666 279.273h1.687v10.12h-1.687zM32.841 279.273h1.687v10.12h-1.687zM36.016 279.273h1.687v10.12h-1.687zM39.145 279.273h1.687v10.12h-1.687zM42.32 279.273h1.687v10.12H42.32z"/>
  </g>
</svg>